<?xml version="1.0" encoding="utf-8"?>
<!-- Generator: Adobe Illustrator 15.0.0, SVG Export Plug-In . SVG Version: 6.00 Build 0)  -->
<!DOCTYPE svg PUBLIC "-//W3C//DTD SVG 1.1//EN" "http://www.w3.org/Graphics/SVG/1.1/DTD/svg11.dtd">
<svg version="1.1" id="レイヤー_1" xmlns="http://www.w3.org/2000/svg" xmlns:xlink="http://www.w3.org/1999/xlink" x="0px"
	 y="0px" width="1460px" height="1308px" viewBox="0 0 1460 1308" enable-background="new 0 0 1460 1308" xml:space="preserve">
<link xmlns="http://www.w3.org/1999/xhtml" href='http://fonts.googleapis.com/css?family=Roboto:400,500,400italic' rel='stylesheet' type='text/css' />
<g>
	<g>
		
			<polygon fill="none" stroke="#2EA7E0" stroke-width="6" stroke-linecap="round" stroke-linejoin="round" stroke-miterlimit="10" points="
			561.5,73.001 561.5,44 503,44 503,218 737,218 737,73.001 		"/>
		<text transform="matrix(1 0 0 1 604.1543 27.9995)" fill="#2EA7E0" font-family="'Roboto'" font-size="24">2a91fd</text>
		<polygon fill="#2EA7E0" points="582,2 582,36 572,36 562,26 562,12 572,2 		"/>
		
			<polygon fill="none" stroke="#2EA7E0" stroke-width="4" stroke-linecap="round" stroke-linejoin="round" stroke-miterlimit="10" points="
			702,36 572,36 562,26 562,12 572,2 702,2 		"/>
		<circle fill="#FFFFFF" cx="572" cy="19" r="5"/>
		<path fill="none" stroke="#2EA7E0" stroke-width="4" stroke-linecap="round" stroke-linejoin="round" stroke-miterlimit="10" d="
			M536,44c0-13.253,10.746-24,24-24"/>
		<text transform="matrix(1 0 0 1 571.0586 156.0005)" fill="#2EA7E0" font-family="'Roboto'" font-size="42">TREE</text>
	</g>
	<g>
		
			<polygon fill="none" stroke="#2EA7E0" stroke-width="6" stroke-linecap="round" stroke-linejoin="round" stroke-miterlimit="10" points="
			561.5,513.001 561.5,484 503,484 503,658 737,658 737,513.001 		"/>
		<text transform="matrix(1 0 0 1 604.957 467.9995)" fill="#2EA7E0" font-family="'Roboto'" font-size="24">3f1e9s</text>
		<polygon fill="#2EA7E0" points="582,442 582,476 572,476 562,466 562,452 572,442 		"/>
		
			<polygon fill="none" stroke="#2EA7E0" stroke-width="4" stroke-linecap="round" stroke-linejoin="round" stroke-miterlimit="10" points="
			702,476 572,476 562,466 562,452 572,442 702,442 		"/>
		<circle fill="#FFFFFF" cx="572" cy="459" r="5"/>
		<path fill="none" stroke="#2EA7E0" stroke-width="4" stroke-linecap="round" stroke-linejoin="round" stroke-miterlimit="10" d="
			M536,484c0-13.253,10.746-24,24-24"/>
		<text transform="matrix(1 0 0 1 571.0586 596.0005)" fill="#2EA7E0" font-family="'Roboto'" font-size="42">TREE</text>
	</g>
	<g>
		
			<polygon fill="none" stroke="#2EA7E0" stroke-width="6" stroke-linecap="round" stroke-linejoin="round" stroke-miterlimit="10" points="
			561.5,1056.001 561.5,1027 503,1027 503,1201 737,1201 737,1056.001 		"/>
		<text transform="matrix(1 0 0 1 597.4863 1011)" fill="#2EA7E0" font-family="'Roboto'" font-size="24">78h12m</text>
		<polygon fill="#2EA7E0" points="582,985 582,1019 572,1019 562,1009 562,995 572,985 		"/>
		
			<polygon fill="none" stroke="#2EA7E0" stroke-width="4" stroke-linecap="round" stroke-linejoin="round" stroke-miterlimit="10" points="
			702,1019 572,1019 562,1009 562,995 572,985 702,985 		"/>
		<circle fill="#FFFFFF" cx="572" cy="1002" r="5"/>
		<path fill="none" stroke="#2EA7E0" stroke-width="4" stroke-linecap="round" stroke-linejoin="round" stroke-miterlimit="10" d="
			M536,1027c0-13.253,10.746-24,24-24"/>
		<text transform="matrix(1 0 0 1 571.0586 1139)" fill="#2EA7E0" font-family="'Roboto'" font-size="42">TREE</text>
	</g>
	<g>
		<g>
			<polyline fill="none" stroke="#2EA7E0" stroke-width="6" stroke-linecap="round" stroke-linejoin="round" points="857,185 
				857,345 977,345 			"/>
			<g>
				<circle fill="#2EA7E0" cx="977" cy="345" r="11.279"/>
			</g>
		</g>
	</g>
	<g>
		<g>
			<polyline fill="none" stroke="#2EA7E0" stroke-width="6" stroke-linecap="round" stroke-linejoin="round" points="620,1200 
				620,1305 1457,1305 1457,105 737,105 			"/>
			<g>
				<circle fill="#2EA7E0" cx="620" cy="1200" r="11.279"/>
			</g>
			<g>
				<circle fill="#2EA7E0" cx="737" cy="105" r="11.279"/>
			</g>
		</g>
	</g>
	<g>
		<g>
			<polyline fill="none" stroke="#2EA7E0" stroke-width="6" stroke-linecap="round" stroke-linejoin="round" points="737,185 
				1377,185 1377,745 1151,745 			"/>
			<g>
				<circle fill="#2EA7E0" cx="737" cy="185" r="11.279"/>
			</g>
			<g>
				<circle fill="#2EA7E0" cx="1151" cy="745" r="11.279"/>
			</g>
		</g>
	</g>
	<g>
		<g>
			
				<line fill="none" stroke="#2EA7E0" stroke-width="6" stroke-linecap="round" stroke-linejoin="round" x1="737" y1="585" x2="857" y2="585"/>
			<g>
				<circle fill="#2EA7E0" cx="737" cy="585" r="11.279"/>
			</g>
		</g>
	</g>
	<g>
		<g>
			
				<line fill="none" stroke="#2EA7E0" stroke-width="6" stroke-linecap="round" stroke-linejoin="round" x1="737" y1="1125" x2="977" y2="1125"/>
			<g>
				<circle fill="#2EA7E0" cx="737" cy="1125" r="11.279"/>
			</g>
			<g>
				<circle fill="#2EA7E0" cx="977" cy="1125" r="11.279"/>
			</g>
		</g>
	</g>
	<g>
		<g>
			<polyline fill="none" stroke="#2EA7E0" stroke-width="6" stroke-linecap="round" stroke-linejoin="round" points="977,425 
				857,425 857,745 977,745 			"/>
			<g>
				<circle fill="#2EA7E0" cx="977" cy="425" r="11.279"/>
			</g>
			<g>
				<circle fill="#2EA7E0" cx="977" cy="745" r="11.279"/>
			</g>
		</g>
	</g>
	<g>
		<rect x="797" y="1095" fill="#FFFFFF" stroke="#2EA7E0" stroke-width="4" stroke-miterlimit="10" width="120" height="60"/>
		<text transform="matrix(1 0 0 1 817.4102 1137.2734)" fill="#2EA7E0" font-family="'Roboto'" font-size="30">git.txt</text>
	</g>
	<g>
		<rect x="797" y="395" fill="#FFFFFF" stroke="#2EA7E0" stroke-width="4" stroke-miterlimit="10" width="120" height="60"/>
		<text transform="matrix(1 0 0 1 817.4102 437)" fill="#2EA7E0" font-family="'Roboto'" font-size="30">git.txt</text>
	</g>
	<g>
		<rect x="797" y="715" fill="#FFFFFF" stroke="#2EA7E0" stroke-width="4" stroke-miterlimit="10" width="120" height="60"/>
		<text transform="matrix(1 0 0 1 804.3223 757.2734)" fill="#2EA7E0" font-family="'Roboto'" font-size="30">new.jpg</text>
	</g>
	<g>
		<rect x="977" y="75" fill="#FFFFFF" stroke="#2EA7E0" stroke-width="4" stroke-miterlimit="10" width="120" height="60"/>
		<text transform="matrix(1 0 0 1 1012.4834 117.2734)" fill="#2EA7E0" font-family="'Roboto'" font-size="30">bak</text>
	</g>
	<g>
		<rect x="797" y="315" fill="#FFFFFF" stroke="#2EA7E0" stroke-width="4" stroke-miterlimit="10" width="120" height="60"/>
		<text transform="matrix(1 0 0 1 817.4102 357.2734)" fill="#2EA7E0" font-family="'Roboto'" font-size="30">git.txt</text>
	</g>
	<g>
		<rect x="977" y="155" fill="#FFFFFF" stroke="#2EA7E0" stroke-width="4" stroke-miterlimit="10" width="120" height="60"/>
		<text transform="matrix(1 0 0 1 984.3223 197.2734)" fill="#2EA7E0" font-family="'Roboto'" font-size="30">new.jpg</text>
	</g>
	<g>
		<g>
			
				<line fill="none" stroke="#2EA7E0" stroke-width="6" stroke-linecap="round" stroke-linejoin="round" stroke-dasharray="0,12" x1="120" y1="282" x2="120" y2="362"/>
			<g>
				<g>
					<circle fill="#FFFFFF" cx="120" cy="282" r="9.023"/>
					<path fill="#2EA7E0" d="M109.776,282c0,5.637,4.587,10.224,10.224,10.224s10.224-4.587,10.224-10.224
						s-4.587-10.224-10.224-10.224S109.776,276.363,109.776,282S109.776,276.363,109.776,282z M127.823,282
						c0,4.314-3.509,7.823-7.823,7.823s-7.823-3.509-7.823-7.823s3.509-7.823,7.823-7.823S127.823,277.686,127.823,282
						S127.823,277.686,127.823,282z"/>
				</g>
			</g>
			<g>
				<g>
					<path fill="#2EA7E0" d="M123.498,424.373l0.082-1.998c2.057,1.248,9.393-1.641,8.391-7.611
						c4.002,0.779,6.457-2.631,5.473-6.498c-0.85-3.334-1.184-5.285-0.111-11.115c1.33-7.236,3.568-15.551-1.43-24.111
						c-0.445-0.744,0-1.611,0.498-1.834c0.938-0.416,3.709-0.105,3.768-2.443v-8.719c0-3.111-4.559-5.602-19.002-5.555
						c-15.053,0.047-20.947,0.217-21,6.439c-0.053,6.111,0,7.805,0,7.805c0.053,1.945,1.348,2.256,2.186,2.561
						c0.498,0.17,0.703,0.908,0.475,1.412c-0.34,0.779-3.68,8.496-4.383,15.17c-0.656,6.188-2.531,8.607-1.893,12.773
						c0.756,4.934,0.234,20.895,0.17,25.67c-0.064,4.67,1.447,12.164,1.219,22.113c-0.217,9.498,10.781,9.545,10.277,1.002
						c-0.398-6.756,0.434-6.979,0.135-9.311c-0.504-4.09-0.029-8.607,0.205-11.777c0.1-1.453-0.34-3.053,0.105-7.307
						c0.557,2.338,1.201,2.438,2.725,5.783C113.83,431.709,123.217,428.873,123.498,424.373z"/>
					<path fill="#FFFFFF" d="M119.607,366.928c6-0.164,16.383,0.996,17.332,1.336c0.896,0.316,1.453-0.34,1.33-1.67
						c-0.076-0.926-0.053-5.607-0.053-5.607c0-2.057-2.109-4.559-18.105-4.559c-16.559,0.111-18.668,0.773-18.668,5.666l0.164,6.059
						c0.07,0.363,0.293,0.639,0.662,0.832C103.201,369.459,104.449,367.35,119.607,366.928z"/>
					<path fill="#FFFFFF" d="M121.225,381.061c0.275-0.264,0.721-0.363,0.932-0.24c1.061,0.557,0.258,1.775,0.176,2.719
						c-0.07,0.779-0.779,5.004,0.223,6.557c1.002,1.559,2.941,4.605,7.166,5.666c0.779,0.17,3.129,1.482,3.779,3.504
						c0.457,1.424,1.904,1.184,2.027-0.029c0.311-3.252,1.664-4.248,1.641-14.361c-0.445-8.057-2.004-15.609-12.727-16.113
						c-5.895-0.164-14.133,0.082-17.109,0.943c-3.018,0.879-3,3.334-4.113,5.496c-3.867,8.982-3.621,14.982-4.723,19.951
						c-0.434,1.957-1.195,3.445,0.557,5.941c3.738,5.32,4.998,11.725,6.111,13.283c0.691,1.078,1.049,1.383,1.441,1.553
						c0.645,0.275,0.727,1.389,1.506,2.332c0.445,0.615,0.662,0.891,0.943,1.559c1.166-0.891-0.146-1.693,2.379-2.93
						c0.551-0.264,1.564,0.041,2.01,0.205c1.025,0.586,1.189,2.777,1.348,3.639c0.117,0.686,0.252,1.506,0.404,2.279
						c0.387,2.057-1.723,2.678-0.979,2.748c3.779,0.381,3-4.693,2.725-6.357c-0.135-1.67-0.973-3.029-1.389-4.699
						c-0.557-0.721-0.668-4.541-3.363-4.5c-0.439-0.053-1.406,0.029-0.973-1.166c0.334-0.902,0.293-5.215-0.943-5.859
						c-0.568-0.293-0.943-0.586-1.219-1.195c-0.281-0.609,0.082-0.973,0.779-0.891c0.879,0.111,2.104,0.041,2.385-1.219
						c0.293-1.113,0.322-1.67-0.164-2.443c-0.445-0.832-1.447-2.385-1.395-3.111c0.188-0.586,0.639-1.043,1.283,0.334
						c0.598,1.225,2.596,2.713,4.887,0.609c3.375-3.1,3.627-2.104,3.996-13.096C120.85,381.652,120.938,381.354,121.225,381.061z"/>
					<path fill="#FFFFFF" d="M121.412,399.066c-1.828-1.441-2.443-2.555-4.248-1.189c-0.334,0.164-0.346,0.662-0.029,2.027
						c0.164,0.721,3.082,3.135,5.021,1.025C122.443,400.432,122.637,399.875,121.412,399.066z"/>
					<path fill="#FFFFFF" d="M127.166,396.764c0.275-0.879-3.797-2.279-4.055-2.221c-0.398,0.094-0.809,0.152-0.955,1.945
						c0,0.803,1.564,2.279,3.287,2.109C126.609,398.48,127.113,396.934,127.166,396.764z"/>
					<path fill="#FFFFFF" d="M116.912,404.012c-0.861-0.773-2.455-2.52-3.305-2.027c-1.008,0.592-1.529,1.271-0.885,3.082
						c0.428,1.213,2.385,3.475,4.775,1.031C117.803,405.348,118.055,405.066,116.912,404.012z"/>
					<path fill="#FFFFFF" d="M131.912,413.176c5.25,1.26,4.863-4.523,3.475-6.855c-2.221-3.744-2.777-7.002-4.283-8.279
						c-0.838-0.721-2.994-1.781-3.105-0.721c-0.1,0.938-0.879,1.793-1.33,2.279c-0.199,0.205-1.646-0.088-1.617,0.217
						c0.053,0.223,1.559-0.164,3.334,3.445c0.727,1.559,2.068,4.916,2.338,6.111c0.193,0.92,0.633,1.84,0.855,3.445
						C131.631,413.123,131.795,413.158,131.912,413.176z"/>
					<path fill="#FFFFFF" d="M123.604,420.184c-0.217-3.967,0.023-5.561,0.059-6.533c0.504-4.887-1.371-7.055-2.76-8.109
						c-0.932-1.002-1.723-1.277-2.355-2.057c-0.498-0.627-1.576-1.307,0.088-0.891c0.814,0.205,1.336,0.873,2.695,0.334
						c0.826-0.498,1.33-0.609,2.227-2.109c0.053-0.17,0.082-0.363,0.164-0.223c0.369,0.445,2.936,0.896,4.002,4.998
						c1.406,5.438,2.742,7.846,2.953,8.988c0.029,0.193,0.029,0.504,0,0.756c-0.082,1.676-0.369,2.285-0.791,2.812
						c-0.428,0.527-2.777,3.305-5.701,2.59C123.85,420.6,123.604,420.43,123.604,420.184z"/>
					<path fill="#FFFFFF" d="M114.439,427.543c0,0.387,5.883,1.043,7.395-3.059c0.738-2.016,0.205-3.105,0.275-5.109
						c-0.17-3.445,0.076-6.211,0.047-7.611c-0.035-2.062-0.48-3.674-1.658-4.775c-0.598-0.557-1.553-1.811-1.887-0.973
						c-0.334,0.832-0.475,1.359-1.834,2.08c-1.781,0.943-2.971-0.299-2.508,0.809c0.416,0.949,0.451,1.008,1.172,2.027
						c2.76,3.896,5.725,16.277-0.504,15.996C114.498,426.986,114.164,427.373,114.439,427.543z"/>
					<path fill="#FFFFFF" d="M110.156,421.262c-0.047,0.727,0.434,1.289,0.621,1.723c0.334,0.779,0.832,3.557,2.443,2.279
						c1.605-1.277,0.223-5.062-0.223-6.387c-0.223-0.557-0.609-0.779-1.113-0.779C111.387,418.098,110.156,418.432,110.156,421.262z
						"/>
					<path fill="#FFFFFF" d="M99.387,442.039c0.047-3.053-1.559-10.107-0.832-13.834c-0.832-4.553,0.053-12.439-0.17-15.053
						c0-2.221-0.498-7.225,0-10.67c0.393,0.949,3.111,4.559,4.553,10.172c0.451,1.945,1.342,3.498,3.451,5.051
						c0.633,3.92,0.914,9.627,0.357,9.891c-0.264,0.129-0.574,0.199-0.416,0.92c0.135,0.639,0.305,0.305,0.363,1.5
						c0.164,6.164,0.053,9.439,0.053,9.439c-0.082,1.365-0.592,0.908-0.721,1.395c-0.117,0.428,0.334,0.105,0.504,1.553
						c0.076,0.756,0.357,2.719,0.275,8.197c0.111,4.834-7.201,5.953-7.535-2.227C99.053,442.818,99.551,442.877,99.387,442.039z"/>
				</g>
			</g>
		</g>
	</g>
	<g>
		<text transform="matrix(1 0 0 1 1184.957 277.9995)" fill="#2EA7E0" font-family="'Roboto'" font-size="24">1w87d4</text>
		<polygon fill="#2EA7E0" points="1168,252 1168,286 1158,286 1148,276 1148,262 1158,252 		"/>
		
			<polygon fill="none" stroke="#2EA7E0" stroke-width="4" stroke-linecap="round" stroke-linejoin="round" stroke-miterlimit="10" points="
			1288,286 1158,286 1148,276 1148,262 1158,252 1288,252 		"/>
		<circle fill="#FFFFFF" cx="1158" cy="269" r="5"/>
		<path fill="none" stroke="#2EA7E0" stroke-width="4" stroke-linecap="round" stroke-linejoin="round" stroke-miterlimit="10" d="
			M1122,294c0-13.253,10.746-24,24-24"/>
		<text transform="matrix(1 0 0 1 1011.2852 396.2739)" fill="#2EA7E0" font-family="'Roboto'" font-size="42">BLOB</text>
		<g>
			
				<polygon fill="none" stroke="#2EA7E0" stroke-width="6" stroke-linecap="round" stroke-linejoin="round" stroke-miterlimit="10" points="
				1151,324.031 1151,501 977,501 977,267 1093.969,267 			"/>
			<polygon fill="#2EA7E0" stroke="#2EA7E0" stroke-width="4" stroke-linejoin="round" stroke-miterlimit="10" points="1094,267 
				1094,324 1151,324 			"/>
		</g>
		<g>
			<text transform="matrix(1 0 0 1 990.8965 455)" fill="#2EA7E0" font-family="'Roboto'" font-style="italic" font-size="30">“version 2”</text>
		</g>
	</g>
	<g>
		<text transform="matrix(1 0 0 1 1190.5762 637.9995)" fill="#2EA7E0" font-family="'Roboto'" font-size="24">5tg2vd</text>
		<polygon fill="#2EA7E0" points="1168,612 1168,646 1158,646 1148,636 1148,622 1158,612 		"/>
		
			<polygon fill="none" stroke="#2EA7E0" stroke-width="4" stroke-linecap="round" stroke-linejoin="round" stroke-miterlimit="10" points="
			1288,646 1158,646 1148,636 1148,622 1158,612 1288,612 		"/>
		<circle fill="#FFFFFF" cx="1158" cy="629" r="5"/>
		<path fill="none" stroke="#2EA7E0" stroke-width="4" stroke-linecap="round" stroke-linejoin="round" stroke-miterlimit="10" d="
			M1122,654c0-13.253,10.746-24,24-24"/>
		<text transform="matrix(1 0 0 1 1011.2852 756.2734)" fill="#2EA7E0" font-family="'Roboto'" font-size="42">BLOB</text>
		<g>
			
				<polygon fill="none" stroke="#2EA7E0" stroke-width="6" stroke-linecap="round" stroke-linejoin="round" stroke-miterlimit="10" points="
				1151,684.031 1151,861 977,861 977,627 1093.969,627 			"/>
			<polygon fill="#2EA7E0" stroke="#2EA7E0" stroke-width="4" stroke-linejoin="round" stroke-miterlimit="10" points="1094,627 
				1094,684 1151,684 			"/>
		</g>
		<g>
			<text transform="matrix(1 0 0 1 1000.9531 815)" fill="#2EA7E0" font-family="'Roboto'" font-style="italic" font-size="30">“new file”</text>
		</g>
	</g>
	<g>
		<text transform="matrix(1 0 0 1 1191.0684 1019)" fill="#2EA7E0" font-family="'Roboto'" font-size="24">4t3k6x</text>
		<polygon fill="#2EA7E0" points="1168,993 1168,1027 1158,1027 1148,1017 1148,1003 1158,993 		"/>
		
			<polygon fill="none" stroke="#2EA7E0" stroke-width="4" stroke-linecap="round" stroke-linejoin="round" stroke-miterlimit="10" points="
			1288,1027 1158,1027 1148,1017 1148,1003 1158,993 1288,993 		"/>
		<circle fill="#FFFFFF" cx="1158" cy="1010" r="5"/>
		<path fill="none" stroke="#2EA7E0" stroke-width="4" stroke-linecap="round" stroke-linejoin="round" stroke-miterlimit="10" d="
			M1122,1035c0-13.253,10.746-24,24-24"/>
		<text transform="matrix(1 0 0 1 1011.2852 1137.2734)" fill="#2EA7E0" font-family="'Roboto'" font-size="42">BLOB</text>
		<g>
			
				<polygon fill="none" stroke="#2EA7E0" stroke-width="6" stroke-linecap="round" stroke-linejoin="round" stroke-miterlimit="10" points="
				1151,1065.031 1151,1242 977,1242 977,1008 1093.969,1008 			"/>
			<polygon fill="#2EA7E0" stroke="#2EA7E0" stroke-width="4" stroke-linejoin="round" stroke-miterlimit="10" points="1094,1008 
				1094,1065 1151,1065 			"/>
		</g>
		<g>
			<text transform="matrix(1 0 0 1 990.8965 1196)" fill="#2EA7E0" font-family="'Roboto'" font-style="italic" font-size="30">“version 1”</text>
		</g>
	</g>
	<g>
		
			<text transform="matrix(1 0 0 1 8.5327 245.6182)" fill="#2EA7E0" font-family="'Roboto'" font-size="42" letter-spacing="-1">3rd COMMIT</text>
		<path fill="none" stroke="#2EA7E0" stroke-width="6" stroke-linecap="round" stroke-linejoin="round" stroke-miterlimit="10" d="
			M151.2,188h40.163v-0.004c0.046,0,0.092,0.004,0.138,0.004C216.63,188,237,167.628,237,142.499
			c0-20.231-13.212-37.372-31.477-43.285c0.178-1.58,0.276-3.186,0.276-4.814c0-23.693-19.206-42.899-42.899-42.899
			c-5.725,0-11.185,1.132-16.178,3.165C136.021,40.882,119.303,32,100.5,32c-30.653,0-55.782,23.581-58.279,53.591
			C19.682,91.286,3,111.694,3,136.001c0,28.675,23.21,51.923,51.865,51.995V188H94.65"/>
		<g>
			
				<line fill="none" stroke="#2EA7E0" stroke-width="10" stroke-linecap="round" stroke-linejoin="round" stroke-miterlimit="10" x1="122.925" y1="89.763" x2="122.925" y2="187.263"/>
			
				<line fill="none" stroke="#2EA7E0" stroke-width="10" stroke-linecap="round" stroke-linejoin="round" stroke-miterlimit="10" x1="122.925" y1="89.763" x2="171.675" y2="138.513"/>
			
				<line fill="none" stroke="#2EA7E0" stroke-width="10" stroke-linecap="round" stroke-linejoin="round" stroke-miterlimit="10" x1="74.175" y1="138.513" x2="122.925" y2="89.763"/>
		</g>
		<text transform="matrix(1 0 0 1 209.0645 27.9995)" fill="#2EA7E0" font-family="'Roboto'" font-size="24">8di3js</text>
		<polygon fill="#2EA7E0" points="182,2 182,36 172,36 162,26 162,12 172,2 		"/>
		
			<polygon fill="none" stroke="#2EA7E0" stroke-width="4" stroke-linecap="round" stroke-linejoin="round" stroke-miterlimit="10" points="
			302,36 172,36 162,26 162,12 172,2 302,2 		"/>
		<circle fill="#FFFFFF" cx="172" cy="19" r="5"/>
		<path fill="none" stroke="#2EA7E0" stroke-width="4" stroke-linecap="round" stroke-linejoin="round" stroke-miterlimit="10" d="
			M136,44c0-13.253,10.746-24,24-24"/>
	</g>
	<g>
		<g>
			
				<line fill="none" stroke="#2EA7E0" stroke-width="6" stroke-linecap="round" stroke-linejoin="round" stroke-dasharray="0,12" x1="236" y1="142" x2="396" y2="142"/>
			<g>
				<g>
					<circle fill="#FFFFFF" cx="236" cy="142" r="9.023"/>
					<path fill="#2EA7E0" d="M236,152.224c5.637,0,10.224-4.587,10.224-10.224s-4.587-10.224-10.224-10.224
						s-10.224,4.587-10.224,10.224S230.363,152.224,236,152.224S230.363,152.224,236,152.224z M236,134.177
						c4.314,0,7.823,3.509,7.823,7.823s-3.509,7.823-7.823,7.823s-7.823-3.509-7.823-7.823S231.686,134.177,236,134.177
						S231.686,134.177,236,134.177z"/>
				</g>
			</g>
			<g>
				<g>
					<path fill="#2EA7E0" d="M394.174,161.373c2.511-0.094,6.031-0.145,11.332,0.047c2.457,0.094,3.033-0.918,3.855-5.217
						c0.359-1.865,1.784-0.872,3.807-1.443c1.835-0.723,2.173-5.114,2.173-5.114c0.021-0.989,0.553-1.013,0.867-0.867
						c7.181,3.037,14.772-1.565,14.943-0.773c1.322,3.628,4.94,3.352,5.4,2.414c-0.099,1.636,2.409,2.985,3.178,2.602
						c2.771-1.468,2.822-2.531,4.749-3.206c3.52-1.52,2.77-3.169,6.145-3.352c2.461-0.132,3.277-0.539,3.858-1.06
						c2.555-2.503,0.337-5.831-1.205-6.942c0.577-2.602-3.183-5.771-4.05-7.94c1.158-0.023,2.92-0.291,5.639-1.214
						c1.421-0.488,1.083,0.225,3.567-0.028c3.352-0.3,4.632-0.647,5.69-1.13c0.619-0.286,3.858-0.216,5.541-0.797
						c5.354-0.773,4.51-5.592,4.388-6.052c-0.047-0.192-0.099-0.192-1.097-0.192c-1.351,0.099-3.77-0.604-5.747-0.285
						c-0.769,0.094-1.979-0.244-3.854,0c-2.344-0.413-4.055,0.211-6.78-0.76c-0.408-0.122-0.321,0.268-1.226,0.183
						c-0.483-0.052-0.422-0.436-1.843-0.267c-1.626,0.188-3.703,0.019-5.676,0.019c-1.979,0-3.521-0.403-8.34-0.812
						c-1.973-0.173-3.522-1.063-4.964-0.342c-2.198,1.097-9.834,4.435-18.028,8.484c-0.173,0.084-0.895,0.492-1.35-0.581
						c-0.919-1.702-1.448-1.205-4.678-1.106c-2.309-0.094-0.596-1.865-3.132-1.81c-3.904,0.085-5.438,0.408-11.138,0.291
						c-2.315-0.047-2.943-0.132-2.985,1.505v34.683C393.211,160.839,393.455,161.373,394.174,161.373z"/>
					<path fill="#FFFFFF" d="M472.894,122.275c0.141,1.532-2.7,1.157-3.829,0.928c-0.676-0.131-1.182-1.2-0.507-1.443l4.19,0.384
						C472.81,122.139,472.903,122.242,472.894,122.275z"/>
					<path fill="#FFFFFF" d="M450.3,140.167c-1.641,0.249-1.49,0.924-2.372,0.807c-1.162-0.164-0.121-0.604-4.102-0.507
						c-1.152,0-1.781-0.079-2.555,0.408c-0.384-0.318-1.301-0.75-1.926-0.197c-1.444-0.29-0.934-0.459-3.378,0.099
						c-3.293,0.75-3.949-0.595-5.478-1.345c-0.407-0.188-0.68-0.333-1.477-0.211c-6.074,0.735-3.447,0.717-11.868,0.206
						c-2.916-0.554-4.046-2.124-3.924-6.075c0.239-4.481,1.2-3.857,3.661-4.917c9.979-4.435,16.678-8.241,19.279-8.049
						c7.379,0.099,6.028,1.448,15.765,1.158c3.084-0.385,2.99,1.2,4.144,1.013c0.872-0.483,0.154-0.947,3.136-0.676
						c6.052,0.554,7.257-0.478,7.81,0.479c0.74,1.284,0.722,2.091,4.65,1.758c0.323-0.023,0.422-0.033,0.613-0.065
						c0.483-0.117,0.507,0.173,0.038,0.529c-0.385,0.296-3.581,1.847-7.327,1.252c-2.123-0.338-1.015,0.487-4.532,0.487
						c-1.542-0.104-2.503-0.104-2.986-0.201c-1.542,0.586-4.532,0.628-5.501,0.394c-1.179-0.3-1.731-0.68-2.793-0.104
						c-1.058,0.581-3.378,1.378-6.842,0.966c-4.05-0.482-3.834-1.266-4.242-0.966c-0.942,0.718,0.984,2.039-1.013,3.567
						c-1.026,0.787-2.123-2.357-3.136-2.311c-0.604,0.084-0.722,0.637-0.432,1.303c0.137,0.314,1.341,2.1,0.338,2.841
						c-1.641,1.209-4.58-2.409-6.849-0.914c-0.529,0.407,0.038,0.989,0.675,0.914c1.095-0.132,2.944,0.923,3.713,1.594
						c1.013,0.914,3.904,2.311,4.969,2.747c3.76,1.542,5.009,0.389,5.686,1.35c0.577,0.722,1.749-0.365,3.085-0.581
						c2.521-0.413,8.315,1.664,7.763,2.943c-0.211,0.422-0.605,0.39-1.123,0.291C451.229,140.064,451.021,140.055,450.3,140.167z"/>
					<path fill="#FFFFFF" d="M448.889,143.284c0.582-1.256,0.643-1.425,1.856-1.688c1.064-0.234,4.148,0.675,3.736,1.979
						c-0.316,0.407-1.612,0.431-2.433,0.623C451.182,144.4,448.481,144.705,448.889,143.284z"/>
					<path fill="#FFFFFF" d="M410.965,153.484c1.24-0.061,1.385-0.815,1.582-1.622c0.276-1.157-0.581-5.977-0.68-12.052
						c-0.094-6.07,0.099-7.809,0.389-11.086c0.07-0.806,0.72-1.818-0.389-1.875c-3.609-0.201-4.721-0.487-5.304,2.354
						c-0.673,3.328-0.767,16.256,0.101,23.044C406.962,152.786,406.229,153.846,410.965,153.484z"/>
				</g>
			</g>
		</g>
	</g>
	<g>
		<g>
			
				<line fill="none" stroke="#2EA7E0" stroke-width="6" stroke-linecap="round" stroke-linejoin="round" stroke-dasharray="0,12" x1="120" y1="722" x2="120" y2="907"/>
			<g>
				<g>
					<circle fill="#FFFFFF" cx="120" cy="722" r="9.023"/>
					<path fill="#2EA7E0" d="M109.776,722c0,5.637,4.587,10.224,10.224,10.224s10.224-4.587,10.224-10.224
						s-4.587-10.224-10.224-10.224S109.776,716.363,109.776,722S109.776,716.363,109.776,722z M127.823,722
						c0,4.314-3.509,7.823-7.823,7.823s-7.823-3.509-7.823-7.823s3.509-7.823,7.823-7.823S127.823,717.686,127.823,722
						S127.823,717.686,127.823,722z"/>
				</g>
			</g>
			<g>
				<g>
					<path fill="#2EA7E0" d="M123.498,969.373l0.082-1.998c2.057,1.248,9.393-1.641,8.391-7.611
						c4.002,0.779,6.457-2.631,5.473-6.498c-0.85-3.334-1.184-5.285-0.111-11.115c1.33-7.236,3.568-15.551-1.43-24.111
						c-0.445-0.744,0-1.611,0.498-1.834c0.938-0.416,3.709-0.105,3.768-2.443v-8.719c0-3.111-4.559-5.602-19.002-5.555
						c-15.053,0.047-20.947,0.217-21,6.439c-0.053,6.111,0,7.805,0,7.805c0.053,1.945,1.348,2.256,2.186,2.561
						c0.498,0.17,0.703,0.908,0.475,1.412c-0.34,0.779-3.68,8.496-4.383,15.17c-0.656,6.188-2.531,8.607-1.893,12.773
						c0.756,4.934,0.234,20.895,0.17,25.67c-0.064,4.67,1.447,12.164,1.219,22.113c-0.217,9.498,10.781,9.545,10.277,1.002
						c-0.398-6.756,0.434-6.979,0.135-9.311c-0.504-4.09-0.029-8.607,0.205-11.777c0.1-1.453-0.34-3.053,0.105-7.307
						c0.557,2.338,1.201,2.438,2.725,5.783C113.83,976.709,123.217,973.873,123.498,969.373z"/>
					<path fill="#FFFFFF" d="M119.607,911.928c6-0.164,16.383,0.996,17.332,1.336c0.896,0.316,1.453-0.34,1.33-1.67
						c-0.076-0.926-0.053-5.607-0.053-5.607c0-2.057-2.109-4.559-18.105-4.559c-16.559,0.111-18.668,0.773-18.668,5.666l0.164,6.059
						c0.07,0.363,0.293,0.639,0.662,0.832C103.201,914.459,104.449,912.35,119.607,911.928z"/>
					<path fill="#FFFFFF" d="M121.225,926.061c0.275-0.264,0.721-0.363,0.932-0.24c1.061,0.557,0.258,1.775,0.176,2.719
						c-0.07,0.779-0.779,5.004,0.223,6.557c1.002,1.559,2.941,4.605,7.166,5.666c0.779,0.17,3.129,1.482,3.779,3.504
						c0.457,1.424,1.904,1.184,2.027-0.029c0.311-3.252,1.664-4.248,1.641-14.361c-0.445-8.057-2.004-15.609-12.727-16.113
						c-5.895-0.164-14.133,0.082-17.109,0.943c-3.018,0.879-3,3.334-4.113,5.496c-3.867,8.982-3.621,14.982-4.723,19.951
						c-0.434,1.957-1.195,3.445,0.557,5.941c3.738,5.32,4.998,11.725,6.111,13.283c0.691,1.078,1.049,1.383,1.441,1.553
						c0.645,0.275,0.727,1.389,1.506,2.332c0.445,0.615,0.662,0.891,0.943,1.559c1.166-0.891-0.146-1.693,2.379-2.93
						c0.551-0.264,1.564,0.041,2.01,0.205c1.025,0.586,1.189,2.777,1.348,3.639c0.117,0.686,0.252,1.506,0.404,2.279
						c0.387,2.057-1.723,2.678-0.979,2.748c3.779,0.381,3-4.693,2.725-6.357c-0.135-1.67-0.973-3.029-1.389-4.699
						c-0.557-0.721-0.668-4.541-3.363-4.5c-0.439-0.053-1.406,0.029-0.973-1.166c0.334-0.902,0.293-5.215-0.943-5.859
						c-0.568-0.293-0.943-0.586-1.219-1.195c-0.281-0.609,0.082-0.973,0.779-0.891c0.879,0.111,2.104,0.041,2.385-1.219
						c0.293-1.113,0.322-1.67-0.164-2.443c-0.445-0.832-1.447-2.385-1.395-3.111c0.188-0.586,0.639-1.043,1.283,0.334
						c0.598,1.225,2.596,2.713,4.887,0.609c3.375-3.1,3.627-2.104,3.996-13.096C120.85,926.652,120.938,926.354,121.225,926.061z"/>
					<path fill="#FFFFFF" d="M121.412,944.066c-1.828-1.441-2.443-2.555-4.248-1.189c-0.334,0.164-0.346,0.662-0.029,2.027
						c0.164,0.721,3.082,3.135,5.021,1.025C122.443,945.432,122.637,944.875,121.412,944.066z"/>
					<path fill="#FFFFFF" d="M127.166,941.764c0.275-0.879-3.797-2.279-4.055-2.221c-0.398,0.094-0.809,0.152-0.955,1.945
						c0,0.803,1.564,2.279,3.287,2.109C126.609,943.48,127.113,941.934,127.166,941.764z"/>
					<path fill="#FFFFFF" d="M116.912,949.012c-0.861-0.773-2.455-2.52-3.305-2.027c-1.008,0.592-1.529,1.271-0.885,3.082
						c0.428,1.213,2.385,3.475,4.775,1.031C117.803,950.348,118.055,950.066,116.912,949.012z"/>
					<path fill="#FFFFFF" d="M131.912,958.176c5.25,1.26,4.863-4.523,3.475-6.855c-2.221-3.744-2.777-7.002-4.283-8.279
						c-0.838-0.721-2.994-1.781-3.105-0.721c-0.1,0.938-0.879,1.793-1.33,2.279c-0.199,0.205-1.646-0.088-1.617,0.217
						c0.053,0.223,1.559-0.164,3.334,3.445c0.727,1.559,2.068,4.916,2.338,6.111c0.193,0.92,0.633,1.84,0.855,3.445
						C131.631,958.123,131.795,958.158,131.912,958.176z"/>
					<path fill="#FFFFFF" d="M123.604,965.184c-0.217-3.967,0.023-5.561,0.059-6.533c0.504-4.887-1.371-7.055-2.76-8.109
						c-0.932-1.002-1.723-1.277-2.355-2.057c-0.498-0.627-1.576-1.307,0.088-0.891c0.814,0.205,1.336,0.873,2.695,0.334
						c0.826-0.498,1.33-0.609,2.227-2.109c0.053-0.17,0.082-0.363,0.164-0.223c0.369,0.445,2.936,0.896,4.002,4.998
						c1.406,5.438,2.742,7.846,2.953,8.988c0.029,0.193,0.029,0.504,0,0.756c-0.082,1.676-0.369,2.285-0.791,2.812
						c-0.428,0.527-2.777,3.305-5.701,2.59C123.85,965.6,123.604,965.43,123.604,965.184z"/>
					<path fill="#FFFFFF" d="M114.439,972.543c0,0.387,5.883,1.043,7.395-3.059c0.738-2.016,0.205-3.105,0.275-5.109
						c-0.17-3.445,0.076-6.211,0.047-7.611c-0.035-2.062-0.48-3.674-1.658-4.775c-0.598-0.557-1.553-1.811-1.887-0.973
						c-0.334,0.832-0.475,1.359-1.834,2.08c-1.781,0.943-2.971-0.299-2.508,0.809c0.416,0.949,0.451,1.008,1.172,2.027
						c2.76,3.896,5.725,16.277-0.504,15.996C114.498,971.986,114.164,972.373,114.439,972.543z"/>
					<path fill="#FFFFFF" d="M110.156,966.262c-0.047,0.727,0.434,1.289,0.621,1.723c0.334,0.779,0.832,3.557,2.443,2.279
						c1.605-1.277,0.223-5.062-0.223-6.387c-0.223-0.557-0.609-0.779-1.113-0.779C111.387,963.098,110.156,963.432,110.156,966.262z
						"/>
					<path fill="#FFFFFF" d="M99.387,987.039c0.047-3.053-1.559-10.107-0.832-13.834c-0.832-4.553,0.053-12.439-0.17-15.053
						c0-2.221-0.498-7.225,0-10.67c0.393,0.949,3.111,4.559,4.553,10.172c0.451,1.945,1.342,3.498,3.451,5.051
						c0.633,3.92,0.914,9.627,0.357,9.891c-0.264,0.129-0.574,0.199-0.416,0.92c0.135,0.639,0.305,0.305,0.363,1.5
						c0.164,6.164,0.053,9.439,0.053,9.439c-0.082,1.365-0.592,0.908-0.721,1.395c-0.117,0.428,0.334,0.105,0.504,1.553
						c0.076,0.756,0.357,2.719,0.275,8.197c0.111,4.834-7.201,5.953-7.535-2.227C99.053,987.818,99.551,987.877,99.387,987.039z"/>
				</g>
			</g>
		</g>
	</g>
	<g>
		
			<text transform="matrix(1 0 0 1 4.0112 685.6182)" fill="#2EA7E0" font-family="'Roboto'" font-size="42" letter-spacing="-1">2nd COMMIT</text>
		<path fill="none" stroke="#2EA7E0" stroke-width="6" stroke-linecap="round" stroke-linejoin="round" stroke-miterlimit="10" d="
			M151.2,628h40.163v-0.004c0.046,0,0.092,0.004,0.138,0.004C216.63,628,237,607.628,237,582.499
			c0-20.231-13.212-37.372-31.477-43.285c0.178-1.58,0.276-3.186,0.276-4.814c0-23.693-19.206-42.899-42.899-42.899
			c-5.725,0-11.185,1.132-16.178,3.165C136.021,480.882,119.303,472,100.5,472c-30.653,0-55.782,23.581-58.279,53.591
			C19.682,531.286,3,551.694,3,576.001c0,28.675,23.21,51.923,51.865,51.995V628H94.65"/>
		<g>
			
				<line fill="none" stroke="#2EA7E0" stroke-width="10" stroke-linecap="round" stroke-linejoin="round" stroke-miterlimit="10" x1="122.925" y1="529.763" x2="122.925" y2="627.263"/>
			
				<line fill="none" stroke="#2EA7E0" stroke-width="10" stroke-linecap="round" stroke-linejoin="round" stroke-miterlimit="10" x1="122.925" y1="529.763" x2="171.675" y2="578.513"/>
			
				<line fill="none" stroke="#2EA7E0" stroke-width="10" stroke-linecap="round" stroke-linejoin="round" stroke-miterlimit="10" x1="74.175" y1="578.513" x2="122.925" y2="529.763"/>
		</g>
		<text transform="matrix(1 0 0 1 205.3555 467.9995)" fill="#2EA7E0" font-family="'Roboto'" font-size="24">4uj5c8</text>
		<polygon fill="#2EA7E0" points="182,442 182,476 172,476 162,466 162,452 172,442 		"/>
		
			<polygon fill="none" stroke="#2EA7E0" stroke-width="4" stroke-linecap="round" stroke-linejoin="round" stroke-miterlimit="10" points="
			302,476 172,476 162,466 162,452 172,442 302,442 		"/>
		<circle fill="#FFFFFF" cx="172" cy="459" r="5"/>
		<path fill="none" stroke="#2EA7E0" stroke-width="4" stroke-linecap="round" stroke-linejoin="round" stroke-miterlimit="10" d="
			M136,484c0-13.253,10.746-24,24-24"/>
	</g>
	<g>
		<g>
			
				<line fill="none" stroke="#2EA7E0" stroke-width="6" stroke-linecap="round" stroke-linejoin="round" stroke-dasharray="0,12" x1="236" y1="582" x2="396" y2="582"/>
			<g>
				<g>
					<circle fill="#FFFFFF" cx="236" cy="582" r="9.023"/>
					<path fill="#2EA7E0" d="M236,592.224c5.637,0,10.224-4.587,10.224-10.224s-4.587-10.224-10.224-10.224
						s-10.224,4.587-10.224,10.224S230.363,592.224,236,592.224S230.363,592.224,236,592.224z M236,574.177
						c4.314,0,7.823,3.509,7.823,7.823s-3.509,7.823-7.823,7.823s-7.823-3.509-7.823-7.823S231.686,574.177,236,574.177
						S231.686,574.177,236,574.177z"/>
				</g>
			</g>
			<g>
				<g>
					<path fill="#2EA7E0" d="M394.174,601.373c2.511-0.094,6.031-0.145,11.332,0.047c2.457,0.094,3.033-0.918,3.855-5.217
						c0.359-1.865,1.784-0.872,3.807-1.443c1.835-0.723,2.173-5.114,2.173-5.114c0.021-0.989,0.553-1.013,0.867-0.867
						c7.181,3.037,14.772-1.565,14.943-0.773c1.322,3.628,4.94,3.352,5.4,2.414c-0.099,1.636,2.409,2.985,3.178,2.602
						c2.771-1.468,2.822-2.531,4.749-3.206c3.52-1.52,2.77-3.169,6.145-3.352c2.461-0.132,3.277-0.539,3.858-1.06
						c2.555-2.503,0.337-5.831-1.205-6.942c0.577-2.602-3.183-5.771-4.05-7.94c1.158-0.023,2.92-0.291,5.639-1.214
						c1.421-0.488,1.083,0.225,3.567-0.028c3.352-0.3,4.632-0.647,5.69-1.13c0.619-0.286,3.858-0.216,5.541-0.797
						c5.354-0.773,4.51-5.592,4.388-6.052c-0.047-0.192-0.099-0.192-1.097-0.192c-1.351,0.099-3.77-0.604-5.747-0.285
						c-0.769,0.094-1.979-0.244-3.854,0c-2.344-0.413-4.055,0.211-6.78-0.76c-0.408-0.122-0.321,0.268-1.226,0.183
						c-0.483-0.052-0.422-0.436-1.843-0.267c-1.626,0.188-3.703,0.019-5.676,0.019c-1.979,0-3.521-0.403-8.34-0.812
						c-1.973-0.173-3.522-1.063-4.964-0.342c-2.198,1.097-9.834,4.435-18.028,8.484c-0.173,0.084-0.895,0.492-1.35-0.581
						c-0.919-1.702-1.448-1.205-4.678-1.106c-2.309-0.094-0.596-1.865-3.132-1.81c-3.904,0.085-5.438,0.408-11.138,0.291
						c-2.315-0.047-2.943-0.132-2.985,1.505v34.683C393.211,600.839,393.455,601.373,394.174,601.373z"/>
					<path fill="#FFFFFF" d="M472.894,562.275c0.141,1.532-2.7,1.157-3.829,0.928c-0.676-0.131-1.182-1.2-0.507-1.443l4.19,0.384
						C472.81,562.139,472.903,562.242,472.894,562.275z"/>
					<path fill="#FFFFFF" d="M450.3,580.167c-1.641,0.249-1.49,0.924-2.372,0.807c-1.162-0.164-0.121-0.604-4.102-0.507
						c-1.152,0-1.781-0.079-2.555,0.408c-0.384-0.318-1.301-0.75-1.926-0.197c-1.444-0.29-0.934-0.459-3.378,0.099
						c-3.293,0.75-3.949-0.595-5.478-1.345c-0.407-0.188-0.68-0.333-1.477-0.211c-6.074,0.735-3.447,0.717-11.868,0.206
						c-2.916-0.554-4.046-2.124-3.924-6.075c0.239-4.481,1.2-3.857,3.661-4.917c9.979-4.435,16.678-8.241,19.279-8.049
						c7.379,0.099,6.028,1.448,15.765,1.158c3.084-0.385,2.99,1.2,4.144,1.013c0.872-0.483,0.154-0.947,3.136-0.676
						c6.052,0.554,7.257-0.478,7.81,0.479c0.74,1.284,0.722,2.091,4.65,1.758c0.323-0.023,0.422-0.033,0.613-0.065
						c0.483-0.117,0.507,0.173,0.038,0.529c-0.385,0.296-3.581,1.847-7.327,1.252c-2.123-0.338-1.015,0.487-4.532,0.487
						c-1.542-0.104-2.503-0.104-2.986-0.201c-1.542,0.586-4.532,0.628-5.501,0.394c-1.179-0.3-1.731-0.68-2.793-0.104
						c-1.058,0.581-3.378,1.378-6.842,0.966c-4.05-0.482-3.834-1.266-4.242-0.966c-0.942,0.718,0.984,2.039-1.013,3.567
						c-1.026,0.787-2.123-2.357-3.136-2.311c-0.604,0.084-0.722,0.637-0.432,1.303c0.137,0.314,1.341,2.1,0.338,2.841
						c-1.641,1.209-4.58-2.409-6.849-0.914c-0.529,0.407,0.038,0.989,0.675,0.914c1.095-0.132,2.944,0.923,3.713,1.594
						c1.013,0.914,3.904,2.311,4.969,2.747c3.76,1.542,5.009,0.389,5.686,1.35c0.577,0.722,1.749-0.365,3.085-0.581
						c2.521-0.413,8.315,1.664,7.763,2.943c-0.211,0.422-0.605,0.39-1.123,0.291C451.229,580.064,451.021,580.055,450.3,580.167z"/>
					<path fill="#FFFFFF" d="M448.889,583.284c0.582-1.256,0.643-1.425,1.856-1.688c1.064-0.234,4.148,0.675,3.736,1.979
						c-0.316,0.407-1.612,0.431-2.433,0.623C451.182,584.4,448.481,584.705,448.889,583.284z"/>
					<path fill="#FFFFFF" d="M410.965,593.484c1.24-0.061,1.385-0.815,1.582-1.622c0.276-1.157-0.581-5.977-0.68-12.052
						c-0.094-6.07,0.099-7.809,0.389-11.086c0.07-0.806,0.72-1.818-0.389-1.875c-3.609-0.201-4.721-0.487-5.304,2.354
						c-0.673,3.328-0.767,16.256,0.101,23.044C406.962,592.786,406.229,593.846,410.965,593.484z"/>
				</g>
			</g>
		</g>
	</g>
	<g>
		
			<text transform="matrix(1 0 0 1 9.6919 1230.6182)" fill="#2EA7E0" font-family="'Roboto'" font-size="42" letter-spacing="-1">1st COMMIT</text>
		<path fill="none" stroke="#2EA7E0" stroke-width="6" stroke-linecap="round" stroke-linejoin="round" stroke-miterlimit="10" d="
			M151.2,1173h40.163v-0.004c0.046,0,0.092,0.004,0.138,0.004c25.129,0,45.499-20.372,45.499-45.501
			c0-20.231-13.212-37.372-31.477-43.285c0.178-1.58,0.276-3.186,0.276-4.814c0-23.693-19.206-42.899-42.899-42.899
			c-5.725,0-11.185,1.132-16.178,3.165C136.021,1025.882,119.303,1017,100.5,1017c-30.653,0-55.782,23.581-58.279,53.591
			C19.682,1076.286,3,1096.694,3,1121.001c0,28.675,23.21,51.923,51.865,51.995V1173H94.65"/>
		<g>
			
				<line fill="none" stroke="#2EA7E0" stroke-width="10" stroke-linecap="round" stroke-linejoin="round" stroke-miterlimit="10" x1="122.925" y1="1074.763" x2="122.925" y2="1172.263"/>
			
				<line fill="none" stroke="#2EA7E0" stroke-width="10" stroke-linecap="round" stroke-linejoin="round" stroke-miterlimit="10" x1="122.925" y1="1074.763" x2="171.675" y2="1123.513"/>
			
				<line fill="none" stroke="#2EA7E0" stroke-width="10" stroke-linecap="round" stroke-linejoin="round" stroke-miterlimit="10" x1="74.175" y1="1123.513" x2="122.925" y2="1074.763"/>
		</g>
		<text transform="matrix(1 0 0 1 199.7188 1013)" fill="#2EA7E0" font-family="'Roboto'" font-size="24">w8xn1b</text>
		<polygon fill="#2EA7E0" points="182,987 182,1021 172,1021 162,1011 162,997 172,987 		"/>
		
			<polygon fill="none" stroke="#2EA7E0" stroke-width="4" stroke-linecap="round" stroke-linejoin="round" stroke-miterlimit="10" points="
			302,1021 172,1021 162,1011 162,997 172,987 302,987 		"/>
		<circle fill="#FFFFFF" cx="172" cy="1004" r="5"/>
		<path fill="none" stroke="#2EA7E0" stroke-width="4" stroke-linecap="round" stroke-linejoin="round" stroke-miterlimit="10" d="
			M136,1029c0-13.253,10.746-24,24-24"/>
	</g>
	<g>
		<g>
			
				<line fill="none" stroke="#2EA7E0" stroke-width="6" stroke-linecap="round" stroke-linejoin="round" stroke-dasharray="0,12" x1="236" y1="1127" x2="396" y2="1127"/>
			<g>
				<g>
					<circle fill="#FFFFFF" cx="236" cy="1127" r="9.023"/>
					<path fill="#2EA7E0" d="M236,1137.224c5.637,0,10.224-4.587,10.224-10.224s-4.587-10.224-10.224-10.224
						s-10.224,4.587-10.224,10.224S230.363,1137.224,236,1137.224S230.363,1137.224,236,1137.224z M236,1119.177
						c4.314,0,7.823,3.509,7.823,7.823s-3.509,7.823-7.823,7.823s-7.823-3.509-7.823-7.823S231.686,1119.177,236,1119.177
						S231.686,1119.177,236,1119.177z"/>
				</g>
			</g>
			<g>
				<g>
					<path fill="#2EA7E0" d="M394.174,1146.373c2.511-0.094,6.031-0.145,11.332,0.047c2.457,0.094,3.033-0.918,3.855-5.217
						c0.359-1.865,1.784-0.872,3.807-1.443c1.835-0.723,2.173-5.114,2.173-5.114c0.021-0.989,0.553-1.013,0.867-0.867
						c7.181,3.037,14.772-1.565,14.943-0.773c1.322,3.628,4.94,3.352,5.4,2.414c-0.099,1.636,2.409,2.985,3.178,2.602
						c2.771-1.468,2.822-2.531,4.749-3.206c3.52-1.52,2.77-3.169,6.145-3.352c2.461-0.132,3.277-0.539,3.858-1.06
						c2.555-2.503,0.337-5.831-1.205-6.942c0.577-2.602-3.183-5.771-4.05-7.94c1.158-0.023,2.92-0.291,5.639-1.214
						c1.421-0.488,1.083,0.225,3.567-0.028c3.352-0.3,4.632-0.647,5.69-1.13c0.619-0.286,3.858-0.216,5.541-0.797
						c5.354-0.773,4.51-5.592,4.388-6.052c-0.047-0.192-0.099-0.192-1.097-0.192c-1.351,0.099-3.77-0.604-5.747-0.285
						c-0.769,0.094-1.979-0.244-3.854,0c-2.344-0.413-4.055,0.211-6.78-0.76c-0.408-0.122-0.321,0.268-1.226,0.183
						c-0.483-0.052-0.422-0.436-1.843-0.267c-1.626,0.188-3.703,0.019-5.676,0.019c-1.979,0-3.521-0.403-8.34-0.812
						c-1.973-0.173-3.522-1.063-4.964-0.342c-2.198,1.097-9.834,4.435-18.028,8.484c-0.173,0.084-0.895,0.492-1.35-0.581
						c-0.919-1.702-1.448-1.205-4.678-1.106c-2.309-0.094-0.596-1.865-3.132-1.81c-3.904,0.085-5.438,0.408-11.138,0.291
						c-2.315-0.047-2.943-0.132-2.985,1.505v34.683C393.211,1145.839,393.455,1146.373,394.174,1146.373z"/>
					<path fill="#FFFFFF" d="M472.894,1107.275c0.141,1.532-2.7,1.157-3.829,0.928c-0.676-0.131-1.182-1.2-0.507-1.443l4.19,0.384
						C472.81,1107.139,472.903,1107.242,472.894,1107.275z"/>
					<path fill="#FFFFFF" d="M450.3,1125.167c-1.641,0.249-1.49,0.924-2.372,0.807c-1.162-0.164-0.121-0.604-4.102-0.507
						c-1.152,0-1.781-0.079-2.555,0.408c-0.384-0.318-1.301-0.75-1.926-0.197c-1.444-0.29-0.934-0.459-3.378,0.099
						c-3.293,0.75-3.949-0.595-5.478-1.345c-0.407-0.188-0.68-0.333-1.477-0.211c-6.074,0.735-3.447,0.717-11.868,0.206
						c-2.916-0.554-4.046-2.124-3.924-6.075c0.239-4.481,1.2-3.857,3.661-4.917c9.979-4.435,16.678-8.241,19.279-8.049
						c7.379,0.099,6.028,1.448,15.765,1.158c3.084-0.385,2.99,1.2,4.144,1.013c0.872-0.483,0.154-0.947,3.136-0.676
						c6.052,0.554,7.257-0.478,7.81,0.479c0.74,1.284,0.722,2.091,4.65,1.758c0.323-0.023,0.422-0.033,0.613-0.065
						c0.483-0.117,0.507,0.173,0.038,0.529c-0.385,0.296-3.581,1.847-7.327,1.252c-2.123-0.338-1.015,0.487-4.532,0.487
						c-1.542-0.104-2.503-0.104-2.986-0.201c-1.542,0.586-4.532,0.628-5.501,0.394c-1.179-0.3-1.731-0.68-2.793-0.104
						c-1.058,0.581-3.378,1.378-6.842,0.966c-4.05-0.482-3.834-1.266-4.242-0.966c-0.942,0.718,0.984,2.039-1.013,3.567
						c-1.026,0.787-2.123-2.357-3.136-2.311c-0.604,0.084-0.722,0.637-0.432,1.303c0.137,0.314,1.341,2.1,0.338,2.841
						c-1.641,1.209-4.58-2.409-6.849-0.914c-0.529,0.407,0.038,0.989,0.675,0.914c1.095-0.132,2.944,0.923,3.713,1.594
						c1.013,0.914,3.904,2.311,4.969,2.747c3.76,1.542,5.009,0.389,5.686,1.35c0.577,0.722,1.749-0.365,3.085-0.581
						c2.521-0.413,8.315,1.664,7.763,2.943c-0.211,0.422-0.605,0.39-1.123,0.291C451.229,1125.064,451.021,1125.055,450.3,1125.167z
						"/>
					<path fill="#FFFFFF" d="M448.889,1128.284c0.582-1.256,0.643-1.425,1.856-1.688c1.064-0.234,4.148,0.675,3.736,1.979
						c-0.316,0.407-1.612,0.431-2.433,0.623C451.182,1129.4,448.481,1129.705,448.889,1128.284z"/>
					<path fill="#FFFFFF" d="M410.965,1138.484c1.24-0.061,1.385-0.815,1.582-1.622c0.276-1.157-0.581-5.977-0.68-12.052
						c-0.094-6.07,0.099-7.809,0.389-11.086c0.07-0.806,0.72-1.818-0.389-1.875c-3.609-0.201-4.721-0.487-5.304,2.354
						c-0.673,3.328-0.767,16.256,0.101,23.044C406.962,1137.786,406.229,1138.846,410.965,1138.484z"/>
				</g>
			</g>
		</g>
	</g>
</g>
</svg>
